<?xml version="1.0" encoding="UTF-8" standalone="no"?>
<svg viewBox="1 2 123 123">
    <path id="left-cog" d="m 51.6,101.4 -2.8,-1 c 0.2,-2 0.1,-4.1 -0.2,-6.1 l 2.7,-1.2 c 1.7,-0.8 2.4,-2.8 1.6,-4.4 l -1.6,-3.4 c -0.8,-1.7 -2.8,-2.4 -4.4,-1.6 l -2.7,1.2 c -1.3,-1.6 -2.8,-3 -4.5,-4.2 l 1,-2.8 c 0.6,-1.7 -0.3,-3.7 -2,-4.3 l -3.5,-1.3 c -1.7,-0.6 -3.7,0.3 -4.3,2 l -1,2.8 c -2,-0.2 -4.1,-0.1 -6.1,0.2 l -1.3,-2.8 c -0.8,-1.7 -2.8,-2.4 -4.4,-1.6 l -3.4,1.6 c -1.7,0.8 -2.4,2.8 -1.6,4.4 l 1.2,2.7 c -1.6,1.3 -3,2.8 -4.2,4.5 l -2.8,-1 C 5.6,84.5 3.6,85.4 3,87.1 l -1.3,3.5 c -0.3,0.8 -0.3,1.7 0.1,2.6 0.4,0.8 1,1.4 1.9,1.7 l 2.8,1 c -0.2,2 -0.1,4.1 0.2,6.1 L 4,103.2 C 2.3,104 1.6,106 2.4,107.6 L 4,111 c 0.8,1.7 2.8,2.4 4.4,1.6 l 2.7,-1.2 c 1.3,1.6 2.8,3 4.5,4.2 l -1,2.8 c -0.3,0.8 -0.3,1.7 0.1,2.6 0.4,0.8 1,1.4 1.9,1.7 l 3.5,1.3 c 0.8,0.3 1.7,0.3 2.6,-0.1 0.8,-0.4 1.4,-1 1.7,-1.9 l 1,-2.8 c 2,0.2 4.1,0.1 6.1,-0.2 l 1.2,2.7 c 0.8,1.7 2.8,2.4 4.4,1.6 l 3.4,-1.6 c 1.7,-0.8 2.4,-2.8 1.6,-4.4 l -1.2,-2.7 c 1.6,-1.3 3,-2.8 4.2,-4.5 l 2.8,1 c 0.8,0.3 1.8,0.3 2.6,-0.1 0.8,-0.4 1.4,-1 1.7,-1.9 l 1.3,-3.5 c 0.7,-1.6 -0.2,-3.5 -1.9,-4.2 z m -18.4,8.8 c -1.8,0.8 -3.6,1.2 -5.5,1.2 -5.2,0 -9.9,-3 -12,-7.7 -3.1,-6.6 -0.1,-14.5 6.5,-17.6 1.8,-0.8 3.6,-1.2 5.5,-1.2 5.2,0 9.9,3 12,7.7 3,6.7 0.1,14.5 -6.5,17.6 z" class="cog"/>
    <path id="right-cog" d="m 119.80001,69.15 -2.8,-1 c 0.2,-2 0.1,-4.1 -0.2,-6.1 l 2.7,-1.2 c 1.7,-0.8 2.4,-2.8 1.6,-4.4 l -1.6,-3.4 c -0.8,-1.7 -2.8,-2.4 -4.4,-1.6 l -2.7,1.2 c -1.3,-1.6 -2.8,-3 -4.5,-4.2 l 1,-2.8 c 0.6,-1.7 -0.3,-3.7 -2,-4.3 l -3.5,-1.3 c -1.7,-0.6 -3.699998,0.3 -4.299998,2 l -1,2.8 c -2,-0.2 -4.1,-0.1 -6.1,0.2 l -1.3,-2.8 c -0.8,-1.7 -2.8,-2.4 -4.4,-1.6 l -3.4,1.6 c -1.7,0.8 -2.4,2.8 -1.6,4.4 l 1.2,2.7 c -1.6,1.3 -3,2.8 -4.2,4.5 l -2.8,-1 c -1.7,-0.6 -3.7,0.3 -4.3,2 l -1.3,3.5 c -0.3,0.8 -0.3,1.7 0.1,2.6 0.4,0.8 1,1.4 1.9,1.7 l 2.8,1 c -0.2,2 -0.1,4.1 0.2,6.1 l -2.7,1.2 c -1.7,0.8 -2.4,2.8 -1.6,4.4 l 1.6,3.4 c 0.8,1.7 2.8,2.4 4.4,1.6 l 2.7,-1.2 c 1.3,1.6 2.8,3 4.5,4.2 l -1,2.8 c -0.3,0.8 -0.3,1.7 0.1,2.6 0.4,0.8 1,1.4 1.9,1.7 l 3.5,1.3 c 0.8,0.3 1.7,0.3 2.6,-0.1 0.8,-0.4 1.4,-1 1.7,-1.9 l 1,-2.8 c 2,0.2 4.1,0.1 6.1,-0.2 l 1.199998,2.7 c 0.8,1.7 2.8,2.4 4.4,1.6 l 3.4,-1.6 c 1.7,-0.8 2.4,-2.8 1.6,-4.4 l -1.2,-2.7 c 1.6,-1.3 3,-2.8 4.2,-4.5 l 2.8,1 c 0.8,0.3 1.8,0.3 2.6,-0.1 0.8,-0.4 1.4,-1 1.7,-1.9 l 1.3,-3.5 c 0.7,-1.6 -0.2,-3.5 -1.9,-4.2 z m -18.4,8.8 c -1.799998,0.8 -3.599998,1.2 -5.499998,1.2 -5.2,0 -9.9,-3 -12,-7.7 -3.1,-6.6 -0.1,-14.5 6.5,-17.6 1.8,-0.8 3.6,-1.2 5.5,-1.2 5.199998,0 9.899998,3 11.999998,7.7 3,6.7 0.1,14.5 -6.5,17.6 z" class="cog"/>
    <path id="top-cog" d="m 62.55001,33.65 -2.8,-1 c 0.2,-2 0.1,-4.1 -0.2,-6.1 l 2.7,-1.2 c 1.7,-0.8 2.4,-2.8 1.6,-4.4 l -1.6,-3.4 c -0.8,-1.7 -2.8,-2.4 -4.4,-1.6 l -2.7,1.2 c -1.3,-1.6 -2.8,-3 -4.5,-4.2 l 1,-2.8 c 0.6,-1.7 -0.3,-3.7 -2,-4.3 l -3.5,-1.3 c -1.7,-0.6 -3.7,0.3 -4.3,2 l -1,2.8 c -2,-0.2 -4.1,-0.1 -6.1,0.2 l -1.3,-2.8 c -0.8,-1.7 -2.8,-2.4 -4.4,-1.6 l -3.4,1.6 c -1.7,0.8 -2.4,2.8 -1.6,4.4 l 1.2,2.7 c -1.6,1.3 -3,2.8 -4.2,4.5 l -2.8,-1 c -1.7,-0.6 -3.7,0.3 -4.3,2 l -1.3,3.5 c -0.3,0.8 -0.3,1.7 0.1,2.6 0.4,0.8 1,1.4 1.9,1.7 l 2.8,1 c -0.2,2 -0.1,4.1 0.2,6.1 l -2.7,1.2 c -1.7,0.8 -2.4,2.8 -1.6,4.4 l 1.6,3.4 c 0.8,1.7 2.8,2.4 4.4,1.6 l 2.7,-1.2 c 1.3,1.6 2.8,3 4.5,4.2 l -1,2.8 c -0.3,0.8 -0.3,1.7 0.1,2.6 0.4,0.8 1,1.4 1.9,1.7 l 3.5,1.3 c 0.8,0.3 1.7,0.3 2.6,-0.1 0.8,-0.4 1.4,-1 1.7,-1.9 l 1,-2.8 c 2,0.2 4.1,0.1 6.1,-0.2 l 1.2,2.7 c 0.8,1.7 2.8,2.4 4.4,1.6 l 3.4,-1.6 c 1.7,-0.8 2.4,-2.8 1.6,-4.4 l -1.2,-2.7 c 1.6,-1.3 3,-2.8 4.2,-4.5 l 2.8,1 c 0.8,0.3 1.8,0.3 2.6,-0.1 0.8,-0.4 1.4,-1 1.7,-1.9 l 1.3,-3.5 c 0.7,-1.6 -0.2,-3.5 -1.9,-4.2 z m -18.4,8.8 c -1.8,0.8 -3.6,1.2 -5.5,1.2 -5.2,0 -9.9,-3 -12,-7.7 -3.1,-6.6 -0.1,-14.5 6.5,-17.6 1.8,-0.8 3.6,-1.2 5.5,-1.2 5.2,0 9.9,3 12,7.7 3,6.7 0.1,14.5 -6.5,17.6 z" class="cog"/>
    <line style="stroke: #000" id="line-to-left" x1="37.967392" x2="28.71739" y1="34.6413" y2="94.141304" stroke-width="5" class="line" />
    <line style="stroke: #000" id="line-to-right" x1="40.967388" x2="92.967392" y1="32.141304" y2="64.891304" stroke-width="5" class="line" />
    <circle id="circle-top" cx="38.5" cy="30.478262" r="9" class="inner-circle"/>
    <circle id="circle-right" cx="95.967392" cy="65.891304" r="9" class="inner-circle"/>
    <circle id="circle-left" cx="27.467394" cy="98.141304" r="9" class="inner-circle"/>
</svg>
